<svg width="1008" height="308" viewBox="0 0 1008 308" fill="none" xmlns="http://www.w3.org/2000/svg">
<g filter="url(#filter0_d_2_21)">
<g clip-path="url(#clip0_2_21)">
<rect x="4" width="1000" height="300" fill="white"/>
<path d="M415.6 257.4C414.133 257.4 412.933 256.933 412 256C410.933 255.2 410.4 254.067 410.4 252.6C410.4 250.733 411.333 248.533 413.2 246C414.933 243.467 417.867 240.667 422 237.6C422.667 235.867 423.133 234.267 423.4 232.8C423.8 231.333 424.133 229.733 424.4 228C425.333 222.133 427 216.2 429.4 210.2C431.8 204.067 434.2 198.333 436.6 193C434.067 192.467 431.533 190.467 429 187C426.6 183.533 425.4 179.867 425.4 176C425.4 175.067 425.6 173.533 426 171.4C426.4 169.133 427.067 168 428 168C429.2 168 429.8 169 429.8 171C429.8 173 429.8 174.4 429.8 175.2C429.8 178 430.6 180.8 432.2 183.6C433.8 186.4 435.733 188.4 438 189.6C440.267 184.667 443.133 178.867 446.6 172.2C450.067 165.4 454 158.267 458.4 150.8C462.8 143.2 467.6 135.8 472.8 128.6C478 121.4 483.467 114.867 489.2 109C495.067 103.133 501.133 98.4667 507.4 95C513.667 91.5333 520.067 89.8 526.6 89.8C531.933 89.8 535.8 91.2 538.2 94C540.6 96.6667 541.8 100.333 541.8 105C541.8 109.933 540.6 115.6 538.2 122C535.8 128.4 532.4 135.067 528 142C523.733 148.8 518.733 155.467 513 162C507.267 168.4 501 174.267 494.2 179.6C487.4 184.8 480.333 188.933 473 192C465.667 195.067 458.333 196.6 451 196.6C449.533 196.6 448.067 196.533 446.6 196.4C445.133 196.133 443.733 195.733 442.4 195.2C439.733 201.467 437.267 207.733 435 214C432.733 220.267 430.933 226.8 429.6 233.6C439.867 227.333 451 222.8 463 220C475 217.2 487 215.8 499 215.8C502.2 215.8 505.867 216.4 510 217.6C514.133 218.667 517.667 220.4 520.6 222.8C523.667 225.2 525.2 228.467 525.2 232.6C525.2 235.933 524.867 237.6 524.2 237.6C523.533 237.6 522.733 236.4 521.8 234C519.933 229.2 517 226.2 513 225C509 223.667 504.6 223 499.8 223C491.667 223 484.667 223.4 478.8 224.2C473.067 224.867 467.733 225.933 462.8 227.4C458 228.867 453 230.667 447.8 232.8C442.6 234.933 436.467 237.4 429.4 240.2C428.333 246.333 426.333 250.733 423.4 253.4C420.6 256.067 418 257.4 415.6 257.4ZM450 193C457.067 193 464.067 191.467 471 188.4C478.067 185.2 484.8 181 491.2 175.8C497.733 170.467 503.733 164.6 509.2 158.2C514.667 151.8 519.4 145.333 523.4 138.8C527.533 132.133 530.733 125.867 533 120C535.267 114 536.4 108.933 536.4 104.8C536.4 101.733 535.667 99.3333 534.2 97.6C532.867 95.8667 530.733 95 527.8 95C522.867 95 517.667 96.7333 512.2 100.2C506.867 103.667 501.4 108.333 495.8 114.2C490.2 120.067 484.733 126.533 479.4 133.6C474.2 140.667 469.267 147.867 464.6 155.2C460.067 162.4 456 169.267 452.4 175.8C448.8 182.2 446 187.6 444 192C444.667 192.4 445.667 192.667 447 192.8C448.333 192.933 449.333 193 450 193Z" fill="black"/>
<g filter="url(#filter1_dddddddd_2_21)">
<mask id="path-4-outside-1_2_21" maskUnits="userSpaceOnUse" x="341" y="112" width="118" height="153" fill="black">
<rect fill="white" x="341" y="112" width="118" height="153"/>
<path d="M372 252.2C377.067 252.2 382 247.333 386.8 237.6C391.733 227.867 394.533 220.333 395.2 215H390.4L358.8 127L342 125.4C342 121.667 343.133 117.667 345.4 113.4H391.4L392 120.4C387.733 122.267 383 123.733 377.8 124.8L395.2 179.4L399.8 197H401.8L425.8 124.8L409 120.4L409.6 113.4H454.6C456.867 117.667 458 121.667 458 125.4C452.533 126.067 447.067 126.533 441.6 126.8C438.133 136.933 432.933 152.067 426 172.2C419.2 192.333 413.8 207.933 409.8 219C405.933 230.067 402.067 239.067 398.2 246C394.333 252.933 390.467 257.533 386.6 259.8C382.867 262.2 378.667 263.4 374 263.4C365.733 263.4 358 261.8 350.8 258.6L347.2 256.8C348.133 241.6 348.733 233.267 349 231.8C350.067 231.4 353.933 231.2 360.6 231.2L367.4 251.6C368.6 252 370.133 252.2 372 252.2Z"/>
</mask>
<path d="M372 252.2C377.067 252.2 382 247.333 386.8 237.6C391.733 227.867 394.533 220.333 395.2 215H390.4L358.8 127L342 125.4C342 121.667 343.133 117.667 345.4 113.4H391.4L392 120.4C387.733 122.267 383 123.733 377.8 124.8L395.2 179.4L399.8 197H401.8L425.8 124.8L409 120.4L409.6 113.4H454.6C456.867 117.667 458 121.667 458 125.4C452.533 126.067 447.067 126.533 441.6 126.8C438.133 136.933 432.933 152.067 426 172.2C419.2 192.333 413.8 207.933 409.8 219C405.933 230.067 402.067 239.067 398.2 246C394.333 252.933 390.467 257.533 386.6 259.8C382.867 262.2 378.667 263.4 374 263.4C365.733 263.4 358 261.8 350.8 258.6L347.2 256.8C348.133 241.6 348.733 233.267 349 231.8C350.067 231.4 353.933 231.2 360.6 231.2L367.4 251.6C368.6 252 370.133 252.2 372 252.2Z" fill="black"/>
<path d="M386.8 237.6L385.908 237.148L385.903 237.158L386.8 237.6ZM395.2 215L396.192 215.124L396.333 214H395.2V215ZM390.4 215L389.459 215.338L389.697 216H390.4V215ZM358.8 127L359.741 126.662L359.527 126.065L358.895 126.004L358.8 127ZM342 125.4H341V126.309L341.905 126.395L342 125.4ZM345.4 113.4V112.4H344.799L344.517 112.931L345.4 113.4ZM391.4 113.4L392.396 113.315L392.318 112.4H391.4V113.4ZM392 120.4L392.401 121.316L393.058 121.029L392.996 120.315L392 120.4ZM377.8 124.8L377.599 123.82L376.509 124.044L376.847 125.104L377.8 124.8ZM395.2 179.4L396.168 179.147L396.161 179.122L396.153 179.096L395.2 179.4ZM399.8 197L398.833 197.253L399.028 198H399.8V197ZM401.8 197V198H402.521L402.749 197.315L401.8 197ZM425.8 124.8L426.749 125.115L427.086 124.103L426.053 123.833L425.8 124.8ZM409 120.4L408.004 120.315L407.932 121.154L408.747 121.367L409 120.4ZM409.6 113.4V112.4H408.682L408.604 113.315L409.6 113.4ZM454.6 113.4L455.483 112.931L455.201 112.4H454.6V113.4ZM458 125.4L458.121 126.393L459 126.285V125.4H458ZM441.6 126.8L441.551 125.801L440.873 125.834L440.654 126.476L441.6 126.8ZM426 172.2L425.054 171.874L425.053 171.88L426 172.2ZM409.8 219L408.859 218.66L408.856 218.67L409.8 219ZM398.2 246L399.073 246.487L399.073 246.487L398.2 246ZM386.6 259.8L386.094 258.937L386.077 258.948L386.059 258.959L386.6 259.8ZM350.8 258.6L350.353 259.494L350.373 259.505L350.394 259.514L350.8 258.6ZM347.2 256.8L346.202 256.739L346.161 257.399L346.753 257.694L347.2 256.8ZM349 231.8L348.649 230.864L348.118 231.063L348.016 231.621L349 231.8ZM360.6 231.2L361.549 230.884L361.321 230.2H360.6V231.2ZM367.4 251.6L366.451 251.916L366.609 252.391L367.084 252.549L367.4 251.6ZM372 253.2C374.881 253.2 377.619 251.81 380.202 249.262C382.78 246.719 385.272 242.959 387.697 238.042L385.903 237.158C383.528 241.974 381.153 245.515 378.798 247.838C376.448 250.156 374.186 251.2 372 251.2V253.2ZM387.692 238.052C392.635 228.299 395.503 220.638 396.192 215.124L394.208 214.876C393.564 220.029 390.832 227.434 385.908 237.148L387.692 238.052ZM395.2 214H390.4V216H395.2V214ZM391.341 214.662L359.741 126.662L357.859 127.338L389.459 215.338L391.341 214.662ZM358.895 126.004L342.095 124.405L341.905 126.395L358.705 127.995L358.895 126.004ZM343 125.4C343 121.871 344.071 118.033 346.283 113.869L344.517 112.931C342.195 117.301 341 121.462 341 125.4H343ZM345.4 114.4H391.4V112.4H345.4V114.4ZM390.404 113.485L391.004 120.485L392.996 120.315L392.396 113.315L390.404 113.485ZM391.599 119.484C387.405 121.319 382.74 122.766 377.599 123.82L378.001 125.78C383.26 124.701 388.062 123.214 392.401 121.316L391.599 119.484ZM376.847 125.104L394.247 179.704L396.153 179.096L378.753 124.496L376.847 125.104ZM394.233 179.653L398.833 197.253L400.768 196.747L396.168 179.147L394.233 179.653ZM399.8 198H401.8V196H399.8V198ZM402.749 197.315L426.749 125.115L424.851 124.485L400.851 196.685L402.749 197.315ZM426.053 123.833L409.253 119.433L408.747 121.367L425.547 125.767L426.053 123.833ZM409.996 120.485L410.596 113.485L408.604 113.315L408.004 120.315L409.996 120.485ZM409.6 114.4H454.6V112.4H409.6V114.4ZM453.717 113.869C455.929 118.033 457 121.871 457 125.4H459C459 121.462 457.805 117.301 455.483 112.931L453.717 113.869ZM457.879 124.407C452.436 125.071 446.994 125.536 441.551 125.801L441.649 127.799C447.14 127.531 452.631 127.062 458.121 126.393L457.879 124.407ZM440.654 126.476C437.188 136.609 431.988 151.741 425.054 171.874L426.946 172.526C433.879 152.392 439.079 137.258 442.546 127.124L440.654 126.476ZM425.053 171.88C418.253 192.011 412.856 207.603 408.86 218.66L410.74 219.34C414.744 208.263 420.147 192.656 426.947 172.52L425.053 171.88ZM408.856 218.67C405 229.706 401.155 238.647 397.327 245.513L399.073 246.487C402.978 239.486 406.866 230.428 410.744 219.33L408.856 218.67ZM397.327 245.513C393.489 252.394 389.73 256.806 386.094 258.937L387.106 260.663C391.204 258.26 395.178 253.472 399.073 246.487L397.327 245.513ZM386.059 258.959C382.496 261.25 378.485 262.4 374 262.4V264.4C378.848 264.4 383.238 263.15 387.141 260.641L386.059 258.959ZM374 262.4C365.866 262.4 358.272 260.827 351.206 257.686L350.394 259.514C357.728 262.773 365.6 264.4 374 264.4V262.4ZM351.247 257.706L347.647 255.906L346.753 257.694L350.353 259.494L351.247 257.706ZM348.198 256.861C348.665 249.262 349.048 243.383 349.347 239.222C349.65 235.023 349.863 232.645 349.984 231.979L348.016 231.621C347.87 232.422 347.65 234.943 347.353 239.078C347.052 243.25 346.669 249.138 346.202 256.739L348.198 256.861ZM349.351 232.736C349.498 232.681 349.838 232.604 350.446 232.53C351.031 232.459 351.797 232.398 352.752 232.349C354.66 232.25 357.274 232.2 360.6 232.2V230.2C357.26 230.2 354.607 230.25 352.648 230.351C351.67 230.402 350.853 230.466 350.204 230.545C349.579 230.621 349.035 230.719 348.649 230.864L349.351 232.736ZM359.651 231.516L366.451 251.916L368.349 251.284L361.549 230.884L359.651 231.516ZM367.084 252.549C368.422 252.995 370.072 253.2 372 253.2V251.2C370.195 251.2 368.778 251.005 367.716 250.651L367.084 252.549Z" fill="black" mask="url(#path-4-outside-1_2_21)"/>
</g>
</g>
<rect x="4.5" y="0.5" width="999" height="299" stroke="black"/>
</g>
<defs>
<filter id="filter0_d_2_21" x="0" y="0" width="1008" height="308" filterUnits="userSpaceOnUse" color-interpolation-filters="sRGB">
<feFlood flood-opacity="0" result="BackgroundImageFix"/>
<feColorMatrix in="SourceAlpha" type="matrix" values="0 0 0 0 0 0 0 0 0 0 0 0 0 0 0 0 0 0 127 0" result="hardAlpha"/>
<feOffset dy="4"/>
<feGaussianBlur stdDeviation="2"/>
<feComposite in2="hardAlpha" operator="out"/>
<feColorMatrix type="matrix" values="0 0 0 0 0 0 0 0 0 0 0 0 0 0 0 0 0 0 0.25 0"/>
<feBlend mode="normal" in2="BackgroundImageFix" result="effect1_dropShadow_2_21"/>
<feBlend mode="normal" in="SourceGraphic" in2="effect1_dropShadow_2_21" result="shape"/>
</filter>
<filter id="filter1_dddddddd_2_21" x="337" y="112.4" width="126" height="160" filterUnits="userSpaceOnUse" color-interpolation-filters="sRGB">
<feFlood flood-opacity="0" result="BackgroundImageFix"/>
<feColorMatrix in="SourceAlpha" type="matrix" values="0 0 0 0 0 0 0 0 0 0 0 0 0 0 0 0 0 0 127 0" result="hardAlpha"/>
<feOffset dy="4"/>
<feGaussianBlur stdDeviation="2"/>
<feComposite in2="hardAlpha" operator="out"/>
<feColorMatrix type="matrix" values="0 0 0 0 0 0 0 0 0 0 0 0 0 0 0 0 0 0 0.25 0"/>
<feBlend mode="normal" in2="BackgroundImageFix" result="effect1_dropShadow_2_21"/>
<feColorMatrix in="SourceAlpha" type="matrix" values="0 0 0 0 0 0 0 0 0 0 0 0 0 0 0 0 0 0 127 0" result="hardAlpha"/>
<feOffset dy="4"/>
<feGaussianBlur stdDeviation="2"/>
<feComposite in2="hardAlpha" operator="out"/>
<feColorMatrix type="matrix" values="0 0 0 0 0 0 0 0 0 0 0 0 0 0 0 0 0 0 0.25 0"/>
<feBlend mode="normal" in2="effect1_dropShadow_2_21" result="effect2_dropShadow_2_21"/>
<feColorMatrix in="SourceAlpha" type="matrix" values="0 0 0 0 0 0 0 0 0 0 0 0 0 0 0 0 0 0 127 0" result="hardAlpha"/>
<feOffset dy="4"/>
<feGaussianBlur stdDeviation="2"/>
<feComposite in2="hardAlpha" operator="out"/>
<feColorMatrix type="matrix" values="0 0 0 0 0 0 0 0 0 0 0 0 0 0 0 0 0 0 0.25 0"/>
<feBlend mode="normal" in2="effect2_dropShadow_2_21" result="effect3_dropShadow_2_21"/>
<feColorMatrix in="SourceAlpha" type="matrix" values="0 0 0 0 0 0 0 0 0 0 0 0 0 0 0 0 0 0 127 0" result="hardAlpha"/>
<feOffset dy="4"/>
<feGaussianBlur stdDeviation="2"/>
<feComposite in2="hardAlpha" operator="out"/>
<feColorMatrix type="matrix" values="0 0 0 0 0 0 0 0 0 0 0 0 0 0 0 0 0 0 0.25 0"/>
<feBlend mode="normal" in2="effect3_dropShadow_2_21" result="effect4_dropShadow_2_21"/>
<feColorMatrix in="SourceAlpha" type="matrix" values="0 0 0 0 0 0 0 0 0 0 0 0 0 0 0 0 0 0 127 0" result="hardAlpha"/>
<feOffset dy="4"/>
<feGaussianBlur stdDeviation="2"/>
<feComposite in2="hardAlpha" operator="out"/>
<feColorMatrix type="matrix" values="0 0 0 0 0 0 0 0 0 0 0 0 0 0 0 0 0 0 0.25 0"/>
<feBlend mode="normal" in2="effect4_dropShadow_2_21" result="effect5_dropShadow_2_21"/>
<feColorMatrix in="SourceAlpha" type="matrix" values="0 0 0 0 0 0 0 0 0 0 0 0 0 0 0 0 0 0 127 0" result="hardAlpha"/>
<feOffset dy="4"/>
<feGaussianBlur stdDeviation="2"/>
<feComposite in2="hardAlpha" operator="out"/>
<feColorMatrix type="matrix" values="0 0 0 0 0 0 0 0 0 0 0 0 0 0 0 0 0 0 0.25 0"/>
<feBlend mode="normal" in2="effect5_dropShadow_2_21" result="effect6_dropShadow_2_21"/>
<feColorMatrix in="SourceAlpha" type="matrix" values="0 0 0 0 0 0 0 0 0 0 0 0 0 0 0 0 0 0 127 0" result="hardAlpha"/>
<feOffset dy="4"/>
<feGaussianBlur stdDeviation="2"/>
<feComposite in2="hardAlpha" operator="out"/>
<feColorMatrix type="matrix" values="0 0 0 0 0 0 0 0 0 0 0 0 0 0 0 0 0 0 0.25 0"/>
<feBlend mode="normal" in2="effect6_dropShadow_2_21" result="effect7_dropShadow_2_21"/>
<feColorMatrix in="SourceAlpha" type="matrix" values="0 0 0 0 0 0 0 0 0 0 0 0 0 0 0 0 0 0 127 0" result="hardAlpha"/>
<feOffset dy="4"/>
<feGaussianBlur stdDeviation="2"/>
<feComposite in2="hardAlpha" operator="out"/>
<feColorMatrix type="matrix" values="0 0 0 0 0 0 0 0 0 0 0 0 0 0 0 0 0 0 0.25 0"/>
<feBlend mode="normal" in2="effect7_dropShadow_2_21" result="effect8_dropShadow_2_21"/>
<feBlend mode="normal" in="SourceGraphic" in2="effect8_dropShadow_2_21" result="shape"/>
</filter>
<clipPath id="clip0_2_21">
<rect x="4" width="1000" height="300" fill="white"/>
</clipPath>
</defs>
</svg>
