<svg width="207" height="286" viewBox="0 0 207 286" fill="none" xmlns="http://www.w3.org/2000/svg">
<path d="M78.6 243.4C77.1333 243.4 75.9333 242.933 75 242C73.9333 241.2 73.4 240.067 73.4 238.6C73.4 236.733 74.3333 234.533 76.2 232C77.9333 229.467 80.8667 226.667 85 223.6C85.6667 221.867 86.1333 220.267 86.4 218.8C86.8 217.333 87.1333 215.733 87.4 214C88.3333 208.133 90 202.2 92.4 196.2C94.8 190.067 97.2 184.333 99.6 179C97.0667 178.467 94.5333 176.467 92 173C89.6 169.533 88.4 165.867 88.4 162C88.4 161.067 88.6 159.533 89 157.4C89.4 155.133 90.0667 154 91 154C92.2 154 92.8 155 92.8 157C92.8 159 92.8 160.4 92.8 161.2C92.8 164 93.6 166.8 95.2 169.6C96.8 172.4 98.7333 174.4 101 175.6C103.267 170.667 106.133 164.867 109.6 158.2C113.067 151.4 117 144.267 121.4 136.8C125.8 129.2 130.6 121.8 135.8 114.6C141 107.4 146.467 100.867 152.2 95C158.067 89.1333 164.133 84.4667 170.4 81C176.667 77.5333 183.067 75.8 189.6 75.8C194.933 75.8 198.8 77.2 201.2 80C203.6 82.6667 204.8 86.3333 204.8 91C204.8 95.9333 203.6 101.6 201.2 108C198.8 114.4 195.4 121.067 191 128C186.733 134.8 181.733 141.467 176 148C170.267 154.4 164 160.267 157.2 165.6C150.4 170.8 143.333 174.933 136 178C128.667 181.067 121.333 182.6 114 182.6C112.533 182.6 111.067 182.533 109.6 182.4C108.133 182.133 106.733 181.733 105.4 181.2C102.733 187.467 100.267 193.733 98 200C95.7333 206.267 93.9333 212.8 92.6 219.6C102.867 213.333 114 208.8 126 206C138 203.2 150 201.8 162 201.8C165.2 201.8 168.867 202.4 173 203.6C177.133 204.667 180.667 206.4 183.6 208.8C186.667 211.2 188.2 214.467 188.2 218.6C188.2 221.933 187.867 223.6 187.2 223.6C186.533 223.6 185.733 222.4 184.8 220C182.933 215.2 180 212.2 176 211C172 209.667 167.6 209 162.8 209C154.667 209 147.667 209.4 141.8 210.2C136.067 210.867 130.733 211.933 125.8 213.4C121 214.867 116 216.667 110.8 218.8C105.6 220.933 99.4667 223.4 92.4 226.2C91.3333 232.333 89.3333 236.733 86.4 239.4C83.6 242.067 81 243.4 78.6 243.4ZM113 179C120.067 179 127.067 177.467 134 174.4C141.067 171.2 147.8 167 154.2 161.8C160.733 156.467 166.733 150.6 172.2 144.2C177.667 137.8 182.4 131.333 186.4 124.8C190.533 118.133 193.733 111.867 196 106C198.267 100 199.4 94.9333 199.4 90.8C199.4 87.7333 198.667 85.3333 197.2 83.6C195.867 81.8667 193.733 81 190.8 81C185.867 81 180.667 82.7333 175.2 86.2C169.867 89.6667 164.4 94.3333 158.8 100.2C153.2 106.067 147.733 112.533 142.4 119.6C137.2 126.667 132.267 133.867 127.6 141.2C123.067 148.4 119 155.267 115.4 161.8C111.8 168.2 109 173.6 107 178C107.667 178.4 108.667 178.667 110 178.8C111.333 178.933 112.333 179 113 179Z" fill="black"/>
<g filter="url(#filter0_dddddddd_3_22)">
<mask id="path-2-outside-1_3_22" maskUnits="userSpaceOnUse" x="4" y="98" width="118" height="153" fill="black">
<rect fill="white" x="4" y="98" width="118" height="153"/>
<path d="M35 238.2C40.0667 238.2 45 233.333 49.8 223.6C54.7333 213.867 57.5333 206.333 58.2 201H53.4L21.8 113L5 111.4C5 107.667 6.13333 103.667 8.4 99.4H54.4L55 106.4C50.7333 108.267 46 109.733 40.8 110.8L58.2 165.4L62.8 183H64.8L88.8 110.8L72 106.4L72.6 99.4H117.6C119.867 103.667 121 107.667 121 111.4C115.533 112.067 110.067 112.533 104.6 112.8C101.133 122.933 95.9333 138.067 89 158.2C82.2 178.333 76.8 193.933 72.8 205C68.9333 216.067 65.0667 225.067 61.2 232C57.3333 238.933 53.4667 243.533 49.6 245.8C45.8667 248.2 41.6667 249.4 37 249.4C28.7333 249.4 21 247.8 13.8 244.6L10.2 242.8C11.1333 227.6 11.7333 219.267 12 217.8C13.0667 217.4 16.9333 217.2 23.6 217.2L30.4 237.6C31.6 238 33.1333 238.2 35 238.2Z"/>
</mask>
<path d="M35 238.2C40.0667 238.2 45 233.333 49.8 223.6C54.7333 213.867 57.5333 206.333 58.2 201H53.4L21.8 113L5 111.4C5 107.667 6.13333 103.667 8.4 99.4H54.4L55 106.4C50.7333 108.267 46 109.733 40.8 110.8L58.2 165.4L62.8 183H64.8L88.8 110.8L72 106.4L72.6 99.4H117.6C119.867 103.667 121 107.667 121 111.4C115.533 112.067 110.067 112.533 104.6 112.8C101.133 122.933 95.9333 138.067 89 158.2C82.2 178.333 76.8 193.933 72.8 205C68.9333 216.067 65.0667 225.067 61.2 232C57.3333 238.933 53.4667 243.533 49.6 245.8C45.8667 248.2 41.6667 249.4 37 249.4C28.7333 249.4 21 247.8 13.8 244.6L10.2 242.8C11.1333 227.6 11.7333 219.267 12 217.8C13.0667 217.4 16.9333 217.2 23.6 217.2L30.4 237.6C31.6 238 33.1333 238.2 35 238.2Z" fill="black"/>
<path d="M49.8 223.6L48.908 223.148L48.9031 223.158L49.8 223.6ZM58.2 201L59.1923 201.124L59.3328 200H58.2V201ZM53.4 201L52.4588 201.338L52.6966 202H53.4V201ZM21.8 113L22.7412 112.662L22.5267 112.065L21.8948 112.004L21.8 113ZM5 111.4H4V112.309L4.90519 112.395L5 111.4ZM8.4 99.4V98.4H7.7989L7.51688 98.9308L8.4 99.4ZM54.4 99.4L55.3964 99.3146L55.318 98.4H54.4V99.4ZM55 106.4L55.4008 107.316L56.0576 107.029L55.9963 106.315L55 106.4ZM40.8 110.8L40.5991 109.82L39.5095 110.044L39.8472 111.104L40.8 110.8ZM58.2 165.4L59.1675 165.147L59.1608 165.122L59.1528 165.096L58.2 165.4ZM62.8 183L61.8325 183.253L62.0278 184H62.8V183ZM64.8 183V184H65.5214L65.7489 183.315L64.8 183ZM88.8 110.8L89.7489 111.115L90.0855 110.103L89.0534 109.833L88.8 110.8ZM72 106.4L71.0037 106.315L70.9317 107.154L71.7466 107.367L72 106.4ZM72.6 99.4V98.4H71.682L71.6037 99.3146L72.6 99.4ZM117.6 99.4L118.483 98.9308L118.201 98.4H117.6V99.4ZM121 111.4L121.121 112.393L122 112.285V111.4H121ZM104.6 112.8L104.551 111.801L103.873 111.834L103.654 112.476L104.6 112.8ZM89 158.2L88.0545 157.874L88.0526 157.88L89 158.2ZM72.8 205L71.8595 204.66L71.856 204.67L72.8 205ZM61.2 232L62.0734 232.487L62.0734 232.487L61.2 232ZM49.6 245.8L49.0943 244.937L49.0765 244.948L49.0592 244.959L49.6 245.8ZM13.8 244.6L13.3528 245.494L13.3731 245.505L13.3939 245.514L13.8 244.6ZM10.2 242.8L9.20188 242.739L9.16135 243.399L9.75279 243.694L10.2 242.8ZM12 217.8L11.6489 216.864L11.1176 217.063L11.0161 217.621L12 217.8ZM23.6 217.2L24.5487 216.884L24.3208 216.2H23.6V217.2ZM30.4 237.6L29.4513 237.916L29.6094 238.391L30.0838 238.549L30.4 237.6ZM35 239.2C37.8807 239.2 40.6188 237.81 43.2023 235.262C45.7802 232.719 48.2722 228.959 50.6969 224.042L48.9031 223.158C46.5278 227.974 44.1531 231.515 41.7977 233.838C39.4479 236.156 37.1859 237.2 35 237.2V239.2ZM50.692 224.052C55.6351 214.299 58.5031 206.638 59.1923 201.124L57.2077 200.876C56.5636 206.029 53.8316 213.434 48.908 223.148L50.692 224.052ZM58.2 200H53.4V202H58.2V200ZM54.3412 200.662L22.7412 112.662L20.8588 113.338L52.4588 201.338L54.3412 200.662ZM21.8948 112.004L5.09481 110.405L4.90519 112.395L21.7052 113.995L21.8948 112.004ZM6 111.4C6 107.871 7.0713 104.033 9.28312 99.8692L7.51688 98.9308C5.19537 103.301 4 107.462 4 111.4H6ZM8.4 100.4H54.4V98.4H8.4V100.4ZM53.4037 99.4854L54.0037 106.485L55.9963 106.315L55.3964 99.3146L53.4037 99.4854ZM54.5992 105.484C50.4049 107.319 45.7397 108.766 40.5991 109.82L41.0009 111.78C46.2603 110.701 51.0618 109.214 55.4008 107.316L54.5992 105.484ZM39.8472 111.104L57.2472 165.704L59.1528 165.096L41.7528 110.496L39.8472 111.104ZM57.2325 165.653L61.8325 183.253L63.7675 182.747L59.1675 165.147L57.2325 165.653ZM62.8 184H64.8V182H62.8V184ZM65.7489 183.315L89.7489 111.115L87.8511 110.485L63.8511 182.685L65.7489 183.315ZM89.0534 109.833L72.2534 105.433L71.7466 107.367L88.5466 111.767L89.0534 109.833ZM72.9964 106.485L73.5963 99.4854L71.6037 99.3146L71.0037 106.315L72.9964 106.485ZM72.6 100.4H117.6V98.4H72.6V100.4ZM116.717 99.8692C118.929 104.033 120 107.871 120 111.4H122C122 107.462 120.805 103.301 118.483 98.9308L116.717 99.8692ZM120.879 110.407C115.436 111.071 109.994 111.536 104.551 111.801L104.649 113.799C110.14 113.531 115.631 113.062 121.121 112.393L120.879 110.407ZM103.654 112.476C100.188 122.609 94.9878 137.741 88.0545 157.874L89.9455 158.526C96.8789 138.392 102.079 123.258 105.546 113.124L103.654 112.476ZM88.0526 157.88C81.2534 178.011 75.856 193.603 71.8596 204.66L73.7405 205.34C77.744 194.263 83.1467 178.656 89.9474 158.52L88.0526 157.88ZM71.856 204.67C68.0002 215.706 64.1555 224.647 60.3266 231.513L62.0734 232.487C65.9779 225.486 69.8664 216.428 73.744 205.33L71.856 204.67ZM60.3266 231.513C56.4889 238.394 52.7295 242.806 49.0943 244.937L50.1057 246.663C54.2038 244.26 58.1778 239.472 62.0734 232.487L60.3266 231.513ZM49.0592 244.959C45.4957 247.25 41.4853 248.4 37 248.4V250.4C41.8481 250.4 46.2376 249.15 50.1408 246.641L49.0592 244.959ZM37 248.4C28.8662 248.4 21.272 246.827 14.2061 243.686L13.3939 245.514C20.728 248.773 28.6004 250.4 37 250.4V248.4ZM14.2472 243.706L10.6472 241.906L9.75279 243.694L13.3528 245.494L14.2472 243.706ZM11.1981 242.861C11.6647 235.262 12.0478 229.383 12.3474 225.222C12.6497 221.023 12.8628 218.645 12.9839 217.979L11.0161 217.621C10.8705 218.422 10.6503 220.943 10.3526 225.078C10.0522 229.25 9.66862 235.138 9.20188 242.739L11.1981 242.861ZM12.3511 218.736C12.4981 218.681 12.8378 218.604 13.4457 218.53C14.0305 218.459 14.7969 218.398 15.7517 218.349C17.6599 218.25 20.2735 218.2 23.6 218.2V216.2C20.2598 216.2 17.6068 216.25 15.6483 216.351C14.6698 216.402 13.8528 216.466 13.2043 216.545C12.5789 216.621 12.0352 216.719 11.6489 216.864L12.3511 218.736ZM22.6513 217.516L29.4513 237.916L31.3487 237.284L24.5487 216.884L22.6513 217.516ZM30.0838 238.549C31.4218 238.995 33.072 239.2 35 239.2V237.2C33.1947 237.2 31.7782 237.005 30.7162 236.651L30.0838 238.549Z" fill="black" mask="url(#path-2-outside-1_3_22)"/>
</g>
<defs>
<filter id="filter0_dddddddd_3_22" x="0" y="98.4" width="126" height="160" filterUnits="userSpaceOnUse" color-interpolation-filters="sRGB">
<feFlood flood-opacity="0" result="BackgroundImageFix"/>
<feColorMatrix in="SourceAlpha" type="matrix" values="0 0 0 0 0 0 0 0 0 0 0 0 0 0 0 0 0 0 127 0" result="hardAlpha"/>
<feOffset dy="4"/>
<feGaussianBlur stdDeviation="2"/>
<feComposite in2="hardAlpha" operator="out"/>
<feColorMatrix type="matrix" values="0 0 0 0 0 0 0 0 0 0 0 0 0 0 0 0 0 0 0.25 0"/>
<feBlend mode="normal" in2="BackgroundImageFix" result="effect1_dropShadow_3_22"/>
<feColorMatrix in="SourceAlpha" type="matrix" values="0 0 0 0 0 0 0 0 0 0 0 0 0 0 0 0 0 0 127 0" result="hardAlpha"/>
<feOffset dy="4"/>
<feGaussianBlur stdDeviation="2"/>
<feComposite in2="hardAlpha" operator="out"/>
<feColorMatrix type="matrix" values="0 0 0 0 0 0 0 0 0 0 0 0 0 0 0 0 0 0 0.25 0"/>
<feBlend mode="normal" in2="effect1_dropShadow_3_22" result="effect2_dropShadow_3_22"/>
<feColorMatrix in="SourceAlpha" type="matrix" values="0 0 0 0 0 0 0 0 0 0 0 0 0 0 0 0 0 0 127 0" result="hardAlpha"/>
<feOffset dy="4"/>
<feGaussianBlur stdDeviation="2"/>
<feComposite in2="hardAlpha" operator="out"/>
<feColorMatrix type="matrix" values="0 0 0 0 0 0 0 0 0 0 0 0 0 0 0 0 0 0 0.25 0"/>
<feBlend mode="normal" in2="effect2_dropShadow_3_22" result="effect3_dropShadow_3_22"/>
<feColorMatrix in="SourceAlpha" type="matrix" values="0 0 0 0 0 0 0 0 0 0 0 0 0 0 0 0 0 0 127 0" result="hardAlpha"/>
<feOffset dy="4"/>
<feGaussianBlur stdDeviation="2"/>
<feComposite in2="hardAlpha" operator="out"/>
<feColorMatrix type="matrix" values="0 0 0 0 0 0 0 0 0 0 0 0 0 0 0 0 0 0 0.25 0"/>
<feBlend mode="normal" in2="effect3_dropShadow_3_22" result="effect4_dropShadow_3_22"/>
<feColorMatrix in="SourceAlpha" type="matrix" values="0 0 0 0 0 0 0 0 0 0 0 0 0 0 0 0 0 0 127 0" result="hardAlpha"/>
<feOffset dy="4"/>
<feGaussianBlur stdDeviation="2"/>
<feComposite in2="hardAlpha" operator="out"/>
<feColorMatrix type="matrix" values="0 0 0 0 0 0 0 0 0 0 0 0 0 0 0 0 0 0 0.25 0"/>
<feBlend mode="normal" in2="effect4_dropShadow_3_22" result="effect5_dropShadow_3_22"/>
<feColorMatrix in="SourceAlpha" type="matrix" values="0 0 0 0 0 0 0 0 0 0 0 0 0 0 0 0 0 0 127 0" result="hardAlpha"/>
<feOffset dy="4"/>
<feGaussianBlur stdDeviation="2"/>
<feComposite in2="hardAlpha" operator="out"/>
<feColorMatrix type="matrix" values="0 0 0 0 0 0 0 0 0 0 0 0 0 0 0 0 0 0 0.25 0"/>
<feBlend mode="normal" in2="effect5_dropShadow_3_22" result="effect6_dropShadow_3_22"/>
<feColorMatrix in="SourceAlpha" type="matrix" values="0 0 0 0 0 0 0 0 0 0 0 0 0 0 0 0 0 0 127 0" result="hardAlpha"/>
<feOffset dy="4"/>
<feGaussianBlur stdDeviation="2"/>
<feComposite in2="hardAlpha" operator="out"/>
<feColorMatrix type="matrix" values="0 0 0 0 0 0 0 0 0 0 0 0 0 0 0 0 0 0 0.25 0"/>
<feBlend mode="normal" in2="effect6_dropShadow_3_22" result="effect7_dropShadow_3_22"/>
<feColorMatrix in="SourceAlpha" type="matrix" values="0 0 0 0 0 0 0 0 0 0 0 0 0 0 0 0 0 0 127 0" result="hardAlpha"/>
<feOffset dy="4"/>
<feGaussianBlur stdDeviation="2"/>
<feComposite in2="hardAlpha" operator="out"/>
<feColorMatrix type="matrix" values="0 0 0 0 0 0 0 0 0 0 0 0 0 0 0 0 0 0 0.25 0"/>
<feBlend mode="normal" in2="effect7_dropShadow_3_22" result="effect8_dropShadow_3_22"/>
<feBlend mode="normal" in="SourceGraphic" in2="effect8_dropShadow_3_22" result="shape"/>
</filter>
</defs>
</svg>
