<svg width="377" height="300" viewBox="0 0 377 300" fill="none" xmlns="http://www.w3.org/2000/svg">
<path d="M347.26 150.59C346.869 152.055 346.137 154.154 345.062 156.889C343.988 159.623 342.768 162.748 341.4 166.264C340.033 169.682 338.52 173.344 336.859 177.25C335.199 181.059 333.588 184.818 332.025 188.529C331.342 190.189 330.512 191.41 329.535 192.191C328.656 192.973 326.801 193.412 323.969 193.51L281.195 194.242L275.922 259.281C275.824 260.16 275.58 261.039 275.189 261.918C274.799 262.699 274.213 263.334 273.432 263.822C273.139 264.018 271.967 264.604 269.916 265.58C267.963 266.459 265.473 267.533 262.445 268.803C259.418 270.072 256.098 271.439 252.484 272.904C248.871 274.369 245.307 275.688 241.791 276.859C238.275 278.129 235.053 279.154 232.123 279.936C229.193 280.814 226.898 281.254 225.238 281.254C223.285 281.254 221.479 280.863 219.818 280.082C218.256 279.398 217.475 277.934 217.475 275.688C217.377 270.805 217.475 265.434 217.768 259.574C218.158 253.617 218.598 247.611 219.086 241.557C219.574 235.404 220.111 229.398 220.697 223.539C221.283 217.582 221.771 212.162 222.162 207.279L223.188 194.975C214.984 194.975 209.125 194.779 205.609 194.389C202.094 193.9 200.336 192.729 200.336 190.873C200.336 189.604 201.068 187.943 202.533 185.893C204.584 183.061 206.879 179.643 209.418 175.639C212.055 171.635 214.545 167.729 216.889 163.92C219.33 160.111 221.43 156.742 223.188 153.812C225.043 150.883 226.215 149.076 226.703 148.393L229.486 108.109C227.631 108.109 226.02 108.158 224.652 108.256C223.285 108.256 222.016 108.305 220.844 108.402C219.77 108.402 218.744 108.451 217.768 108.549C216.791 108.549 215.766 108.549 214.691 108.549C210.004 108.549 206.635 108.305 204.584 107.816C202.631 107.23 201.654 106.205 201.654 104.74C201.654 104.057 202.24 102.641 203.412 100.492C204.584 98.3438 206 95.9023 207.66 93.168C209.418 90.3359 211.273 87.4062 213.227 84.3789C215.277 81.2539 217.084 78.373 218.646 75.7363L227.436 60.7949L294.086 58.4512C302.68 58.1582 311.225 57.8652 319.721 57.5723C328.217 57.1816 336.029 56.8398 343.158 56.5469C350.385 56.2539 356.586 56.0098 361.762 55.8145C366.938 55.5215 370.551 55.3262 372.602 55.2285C372.699 55.2285 372.943 55.2773 373.334 55.375C373.822 55.375 374.311 55.5215 374.799 55.8145C375.287 56.0098 375.727 56.4004 376.117 56.9863C376.605 57.5723 376.85 58.4023 376.85 59.4766C376.85 60.0625 376.166 62.0156 374.799 65.3359C373.432 68.6562 371.479 73.5879 368.939 80.1309L362.494 97.123C361.811 98.7832 361.029 100.053 360.15 100.932C359.271 101.811 357.416 102.299 354.584 102.396C351.264 102.494 347.895 102.641 344.477 102.836C341.059 103.031 337.543 103.227 333.93 103.422L289.398 105.619C288.812 109.428 288.373 112.26 288.08 114.115C287.885 115.971 287.738 117.533 287.641 118.803C287.641 119.975 287.641 121.195 287.641 122.465C287.641 123.637 287.592 125.541 287.494 128.178C287.396 130.033 287.25 131.596 287.055 132.865C286.957 134.135 286.811 135.404 286.615 136.674C286.518 137.846 286.371 139.115 286.176 140.482C286.078 141.85 285.98 143.559 285.883 145.609C292.328 145.414 298.627 145.219 304.779 145.023C311.029 144.828 316.742 144.633 321.918 144.438C327.191 144.242 331.732 144.096 335.541 143.998C339.35 143.803 342.035 143.705 343.598 143.705C344.379 143.705 345.258 143.998 346.234 144.584C347.211 145.17 347.699 146.293 347.699 147.953C347.699 148.734 347.553 149.613 347.26 150.59Z" fill="black"/>
<path d="M18.3105 144.371C18.3105 133.141 19.5801 122.398 22.1191 112.145C24.7559 101.793 28.4668 92.1738 33.252 83.2871C38.0371 74.3027 43.7988 66.1973 50.5371 58.9707C57.373 51.6465 64.9902 45.3965 73.3887 40.2207C81.7871 34.9473 90.8691 30.8945 100.635 28.0625C110.498 25.2305 120.85 23.8145 131.689 23.8145C140.283 23.8145 147.803 24.4004 154.248 25.5723C160.791 26.6465 166.455 28.0625 171.24 29.8203C176.123 31.4805 180.176 33.3359 183.398 35.3867C186.719 37.4375 189.453 39.3906 191.602 41.2461C191.504 41.2461 191.455 41.5879 191.455 42.2715C191.455 43.7363 191.553 46.4219 191.748 50.3281C192.041 54.2344 192.334 58.5801 192.627 63.3652C193.018 68.1504 193.311 73.0332 193.506 78.0137C193.799 82.8965 193.945 87.1445 193.945 90.7578C193.945 91.3438 193.75 92.0273 193.359 92.8086C192.969 93.4922 191.992 93.834 190.43 93.834C189.551 93.834 188.477 93.6875 187.207 93.3945C185.156 92.8086 182.568 91.4902 179.443 89.4395C176.318 87.291 172.656 85.0938 168.457 82.8477C164.355 80.5039 159.717 78.4531 154.541 76.6953C149.463 74.8398 143.896 73.9121 137.842 73.9121C129.834 73.9121 122.559 75.6211 116.016 79.0391C109.473 82.3594 103.906 87.0469 99.3164 93.1016C94.7266 99.0586 91.1621 106.188 88.623 114.488C86.084 122.691 84.8145 131.627 84.8145 141.295C84.8145 149.791 85.5957 157.75 87.1582 165.172C88.7207 172.594 91.0645 179.039 94.1895 184.508C97.4121 189.879 101.367 194.127 106.055 197.252C110.742 200.377 116.26 201.939 122.607 201.939C128.76 201.939 135.742 200.621 143.555 197.984L146.924 177.33H118.945C121.094 165.514 122.949 156.236 124.512 149.498C126.074 142.76 127.539 137.682 128.906 134.264C130.273 130.846 131.689 128.697 133.154 127.818C134.619 126.939 136.328 126.5 138.281 126.5H215.332C217.578 126.5 219.189 126.646 220.166 126.939C221.24 127.232 221.777 128.258 221.777 130.016C221.777 130.895 221.68 131.969 221.484 133.238C221.289 134.41 221.045 135.875 220.752 137.633L213.428 162.242C212.549 165.367 211.816 167.809 211.23 169.566C210.645 171.227 209.912 172.496 209.033 173.375C208.154 174.156 206.934 174.645 205.371 174.84C203.906 174.938 201.758 174.986 198.926 174.986C197.363 174.986 196.436 175.621 196.143 176.891C195.85 178.16 195.605 179.479 195.41 180.846C194.824 185.143 194.238 189.439 193.652 193.736C193.066 197.936 192.48 201.891 191.895 205.602C191.406 209.215 190.869 212.438 190.283 215.27C189.697 218.004 189.111 220.006 188.525 221.275C181.885 225.475 175.83 229.186 170.361 232.408C164.99 235.533 159.619 238.121 154.248 240.172C148.877 242.32 143.213 243.932 137.256 245.006C131.299 246.08 124.463 246.617 116.748 246.617C102.979 246.617 90.0879 244.127 78.0762 239.146C66.0645 234.166 55.6152 227.184 46.7285 218.199C37.9395 209.117 31.0059 198.326 25.9277 185.826C20.8496 173.326 18.3105 159.508 18.3105 144.371Z" fill="black"/>
</svg>
